<mxfile host="app.diagrams.net" modified="2023-10-06T21:32:06.303Z" agent="Mozilla/5.0 (Windows NT 10.0; Win64; x64) AppleWebKit/537.36 (KHTML, like Gecko) Chrome/117.0.0.0 Safari/537.36" version="22.0.3" etag="aoyyhcqvygbdc8k8uEW7" type="github">
  <diagram name="Page-1" id="gE8ljQ-wT2gk_saxbSme">
    <mxGraphModel>
      <root>
        <mxCell id="0" />
        <mxCell id="1" parent="0" />
      </root>
    </mxGraphModel>
  </diagram>
</mxfile>
